<?xml version="1.0" encoding="UTF-8"?><svg id="Layer_2" xmlns="http://www.w3.org/2000/svg" viewBox="0 0 390.449 396.9619"><g id="Components"><g id="_11441295-d54a-4196-b179-192267757d61_22"><path d="M53.54,345.5591v-51.6097L0,240.4087v105.1788l16.8376,16.1551v-82.8635l19.8648,19.8647v82.0584l16.8376,16.1551,103.013.0045-51.4027-51.4027h-51.6103ZM53.54,382.2624v-20.5129l46.0995.0068,20.4357,20.5061H53.54Z" style="fill:#f1efe9; stroke-width:0px;"/><path d="M75.5479,283.9556h30.6296v51.753l51.4015,51.4016-.0037-103.1546-16.1548-16.8374H59.3618l-19.8645-19.8647h82.8635l-16.155-16.8374H.8846l53.5396,53.5396h21.1237ZM142.2825,283.9556l.5973,66.5355-20.5062-20.4356-.0178-46.1h19.9267Z" style="fill:#f1efe9; stroke-width:0px;"/><path d="M169.97,230.3792v-51.6097l-53.54-53.5407v105.1788l16.8376,16.1551v-82.8635l19.8648,19.8647v82.0584l16.8376,16.1551,103.013.0045-51.4027-51.4027h-51.6103ZM169.97,267.0824v-20.5129l46.0995.0068,20.4357,20.5061h-66.5352Z" style="fill:#f1efe9; stroke-width:0px;"/><path d="M191.9779,168.7757h30.6296v51.753l51.4015,51.4016-.0037-103.1546-16.1548-16.8374h-82.0586l-19.8645-19.8647h82.8635l-16.155-16.8374h-105.3211l53.5396,53.5396h21.1237ZM258.7126,168.7757l.5973,66.5355-20.5062-20.4356-.0178-46.1h19.9267Z" style="fill:#f1efe9; stroke-width:0px;"/><path d="M286.4101,115.143v-51.6097l-53.54-53.5407v105.1788l16.8376,16.1551V48.4631l19.8648,19.8647v82.0584l16.8376,16.1551,103.013.0045-51.4027-51.4027h-51.6103ZM286.4101,151.8463v-20.5129l46.0995.0068,20.4357,20.5061h-66.5352Z" style="fill:#f1efe9; stroke-width:0px;"/><path d="M308.418,53.5396h30.6296v51.753l51.4015,51.4016-.0037-103.1546-16.1548-16.8374h-82.0586l-19.8645-19.8647h82.8635L339.0758,0h-105.3211l53.5396,53.5396h21.1237ZM375.1526,53.5396l.5973,66.5355-20.5062-20.4356-.0178-46.1h19.9267Z" style="fill:#f1efe9; stroke-width:0px;"/></g></g></svg>